<?xml version="1.0" encoding="utf-8"?><svg viewBox="0 0 24 24" xmlns="http://www.w3.org/2000/svg" xmlns:xlink="http://www.w3.org/1999/xlink"><style>:root>svg{display:none}:root>svg:target{display:block}</style><svg viewBox="0 0 24 24" id="card" xmlns="http://www.w3.org/2000/svg"><path fill-rule="evenodd" clip-rule="evenodd" d="M16.996 5.222C16.889 2.338 14.716 0 12 0 9.214 0 7 2.46 7 5.444V8H5.113c-.953 0-1.751.695-1.844 1.606L2.01 22.05a1.708 1.708 0 00-.009.172C2 23.204 2.83 24 3.853 24h16.294c.06 0 .12-.003.18-.008 1.018-.095 1.763-.965 1.664-1.942l-1.26-12.444C20.637 8.695 19.84 8 18.886 8H17V5.444l-.004-.222zM15 8V5.444C15 3.52 13.632 2 12 2c-1.576 0-2.905 1.417-2.995 3.247L9 5.444V8h6zm5 14l-1.238-12H5.238L4 22h16z"/></svg><svg viewBox="0 0 10 18" id="fb" xmlns="http://www.w3.org/2000/svg"><path fill-rule="evenodd" clip-rule="evenodd" d="M6.683 18V8.999h2.836l.376-3.102H6.683l.005-1.552c0-.81.088-1.243 1.414-1.243h1.773V0H7.038C3.631 0 2.432 1.505 2.432 4.035v1.862H.31V9h2.123V18h4.251z"/></svg><svg viewBox="0 0 17 16" id="inst" xmlns="http://www.w3.org/2000/svg"><path fill-rule="evenodd" clip-rule="evenodd" d="M16.858 4.704c-.038-.85-.175-1.435-.372-1.941a3.904 3.904 0 00-.926-1.419 3.938 3.938 0 00-1.416-.922c-.51-.197-1.091-.334-1.941-.372C11.346.01 11.074 0 8.9 0 6.73 0 6.457.01 5.603.047c-.85.037-1.435.175-1.941.372a3.905 3.905 0 00-1.42.925A3.94 3.94 0 001.32 2.76C1.123 3.27.986 3.85.948 4.7c-.04.857-.05 1.13-.05 3.302s.01 2.444.047 3.297c.038.85.175 1.435.372 1.941.203.538.52 1.019.925 1.42.4.405.885.721 1.417.921.51.197 1.09.335 1.941.372.853.038 1.126.047 3.298.047 2.173 0 2.445-.01 3.298-.047.85-.037 1.435-.175 1.942-.372a4.092 4.092 0 002.341-2.34c.197-.51.335-1.092.372-1.942.038-.853.047-1.125.047-3.297 0-2.173-.003-2.445-.04-3.298zm-1.442 6.533c-.034.781-.165 1.203-.275 1.484a2.655 2.655 0 01-1.52 1.52c-.28.109-.706.24-1.484.274-.844.038-1.097.047-3.232.047-2.136 0-2.392-.009-3.233-.047-.782-.034-1.204-.165-1.485-.275a2.463 2.463 0 01-.92-.597 2.488 2.488 0 01-.596-.918c-.11-.282-.241-.707-.275-1.485-.038-.844-.047-1.097-.047-3.232 0-2.135.01-2.391.047-3.232.034-.781.165-1.203.275-1.485.128-.347.331-.662.6-.919.26-.265.572-.469.92-.597.28-.109.706-.24 1.484-.275.844-.037 1.097-.047 3.233-.047 2.138 0 2.391.01 3.232.047.782.035 1.204.166 1.485.275.347.128.663.332.92.597.265.26.468.572.596.92.11.28.241.706.275 1.484.038.844.047 1.097.047 3.232 0 2.135-.01 2.385-.047 3.229zm-6.571-6.96a3.948 3.948 0 000 7.894 3.947 3.947 0 000-7.894zm0 6.507a2.56 2.56 0 110-5.12 2.56 2.56 0 010 5.12zm4.102-5.741a.921.921 0 100-1.843.921.921 0 000 1.843z"/></svg><svg viewBox="0 0 22 24" id="logo" xmlns="http://www.w3.org/2000/svg"><path fill-rule="evenodd" clip-rule="evenodd" d="M11.917 21.754c4.454-.47 7.97-4.328 8.234-9.114h-8.234v9.114zm10.07-9.114H22V.375H11C4.925.375 0 5.608 0 12.063 0 18.517 4.925 23.75 11 23.75c5.893 0 10.704-4.924 10.987-11.11zM11 2.323c-5.063 0-9.167 4.36-9.167 9.74 0 5.05 3.618 9.202 8.25 9.691V10.692h10.084v-8.37H11z"/></svg><svg fill="none" viewBox="0 0 24 24" id="search" xmlns="http://www.w3.org/2000/svg"><svg viewBox="0 0 24 24" id="twitter" xmlns="http://www.w3.org/2000/svg"><path d="M21 7.657a7.963 7.963 0 01-2.126.558 3.545 3.545 0 001.623-1.952c-.713.407-1.5.694-2.34.855A3.777 3.777 0 0015.462 6c-2.043 0-3.688 1.587-3.688 3.533 0 .28.025.55.085.806-3.068-.143-5.782-1.55-7.606-3.695a3.441 3.441 0 00-.505 1.786c0 1.223.658 2.307 1.64 2.935a3.77 3.77 0 01-1.668-.435v.039c0 1.716 1.28 3.142 2.956 3.47a3.84 3.84 0 01-.967.117c-.236 0-.475-.013-.699-.06.479 1.399 1.835 2.427 3.449 2.46a7.627 7.627 0 01-4.576 1.507c-.303 0-.593-.013-.883-.048A10.729 10.729 0 008.661 20c6.79 0 10.503-5.385 10.503-10.052 0-.156-.006-.307-.014-.457A7.197 7.197 0 0021 7.657z"/></svg><svg viewBox="0 0 24 24" id="user" xmlns="http://www.w3.org/2000/svg"><path fill-rule="evenodd" clip-rule="evenodd" d="M12 1a5 5 0 100 10 5 5 0 000-10zm0 2a3 3 0 110 6 3 3 0 010-6zm9 19a9 9 0 10-18 0 1 1 0 102 0 7 7 0 1114 0 1 1 0 102 0z"/></svg></svg>