<svg width="24" height="24" viewBox="0 0 24 24" fill="none" xmlns="http://www.w3.org/2000/svg">
<path fill-rule="evenodd" clip-rule="evenodd" d="M16.9959 5.2216C16.889 2.33823 14.7166 0 12 0C9.21371 0 7 2.45968 7 5.44444V8H5.11324C4.15956 8 3.36171 8.69484 3.26943 9.60575L2.00869 22.0502C2.0029 22.1074 2 22.1648 2 22.2222C2 23.2041 2.82939 24 3.8525 24H20.1474C20.2072 24 20.267 23.9972 20.3266 23.9917C21.3449 23.8966 22.0902 23.0274 21.9912 22.0502L20.7304 9.60575C20.6382 8.69484 19.8403 8 18.8866 8H17V5.44444L16.9959 5.2216ZM15 8V5.44444C15 3.52001 13.632 2 12 2C10.4243 2 9.09466 3.41699 9.00483 5.24685L9 5.44444V8H15ZM20 22L18.7621 10H5.23792L4 22H20Z" fill="#1B2437"/>
</svg>
