<svg width="17" height="16" viewBox="0 0 17 16" fill="none" xmlns="http://www.w3.org/2000/svg">
<path fill-rule="evenodd" clip-rule="evenodd" d="M16.8576 4.70406C16.82 3.85391 16.6825 3.26945 16.4856 2.763C16.2824 2.22542 15.9697 1.74412 15.5601 1.34402C15.16 0.937688 14.6754 0.62195 14.144 0.421958C13.6344 0.22502 13.0529 0.0875416 12.2027 0.0500587C11.346 0.00940128 11.074 0 8.90131 0C6.72859 0 6.45663 0.00940128 5.60315 0.0468843C4.75284 0.0843672 4.16827 0.221968 3.66184 0.418784C3.12403 0.62195 2.64265 0.934512 2.24247 1.34402C1.83606 1.74412 1.52038 2.22859 1.32023 2.75994C1.12326 3.26945 0.985752 3.85074 0.948262 4.70088C0.907596 5.55738 0.898193 5.82928 0.898193 8.0016C0.898193 10.1739 0.907596 10.4458 0.945087 11.2991C0.982577 12.1493 1.1202 12.7338 1.31718 13.2402C1.52038 13.7778 1.83606 14.259 2.24247 14.6591C2.64265 15.0655 3.12721 15.3812 3.65867 15.5812C4.16827 15.7782 4.74967 15.9156 5.6001 15.9531C6.45346 15.9907 6.72554 16 8.89827 16C11.071 16 11.3429 15.9907 12.1964 15.9531C13.0468 15.9156 13.6313 15.7782 14.1377 15.5812C15.2132 15.1655 16.0636 14.3154 16.4793 13.2402C16.6762 12.7306 16.8138 12.1493 16.8513 11.2991C16.8888 10.4458 16.8982 10.1739 16.8982 8.0016C16.8982 5.82928 16.895 5.55738 16.8576 4.70406ZM15.4164 11.2366C15.382 12.018 15.2507 12.44 15.1413 12.7213C14.8724 13.4183 14.3191 13.9715 13.6219 14.2404C13.3405 14.3498 12.9155 14.481 12.1369 14.5154C11.2928 14.553 11.0397 14.5622 8.90451 14.5622C6.76925 14.5622 6.51293 14.553 5.67191 14.5154C4.89035 14.481 4.46831 14.3498 4.18695 14.2404C3.84001 14.1122 3.52422 13.909 3.26789 13.6434C3.00216 13.3839 2.79896 13.0713 2.67074 12.7245C2.56131 12.4431 2.43004 12.018 2.39572 11.2398C2.35811 10.3958 2.34883 10.1426 2.34883 8.00784C2.34883 5.87299 2.35811 5.61671 2.39572 4.77597C2.43004 3.99457 2.56131 3.57261 2.67074 3.2913C2.79896 2.94431 3.00216 2.6287 3.27107 2.3723C3.53044 2.10662 3.84307 1.90346 4.19012 1.77538C4.47148 1.66598 4.8967 1.53473 5.67507 1.5003C6.51915 1.46282 6.77243 1.45342 8.90755 1.45342C11.046 1.45342 11.2991 1.46282 12.1401 1.5003C12.9216 1.53473 13.3437 1.66598 13.6251 1.77538C13.972 1.90346 14.2878 2.10662 14.5441 2.3723C14.8099 2.63174 15.0131 2.94431 15.1413 3.2913C15.2507 3.57261 15.382 3.99762 15.4164 4.77597C15.4539 5.61989 15.4633 5.87299 15.4633 8.00784C15.4633 10.1426 15.4539 10.3927 15.4164 11.2366ZM8.84473 4.27744C6.66595 4.27744 4.89819 6.04508 4.89819 8.224C4.89819 10.4029 6.66595 12.1705 8.84473 12.1705C11.0236 12.1705 12.7912 10.4029 12.7912 8.224C12.7912 6.04508 11.0236 4.27744 8.84473 4.27744ZM8.84473 10.784C7.43125 10.784 6.28471 9.6376 6.28471 8.224C6.28471 6.81038 7.43125 5.66396 8.84473 5.66396C10.2584 5.66396 11.4048 6.81038 11.4048 8.224C11.4048 9.6376 10.2584 10.784 8.84473 10.784ZM12.9473 5.04267C13.4562 5.04267 13.8688 4.63013 13.8688 4.12134C13.8688 3.61242 13.4562 3.2 12.9473 3.2C12.4385 3.2 12.026 3.61242 12.026 4.12134C12.026 4.63013 12.4385 5.04267 12.9473 5.04267Z" fill="#1B2437"/>
</svg>
