<svg width="24" height="24" viewBox="0 0 24 24" fill="none" xmlns="http://www.w3.org/2000/svg">
<path d="M21 7.65738C20.3306 7.93846 19.6174 8.12476 18.8737 8.21522C19.6387 7.77799 20.2226 7.09092 20.4971 6.26277C19.7839 6.66984 18.9964 6.95738 18.1571 7.11784C17.4799 6.42754 16.5146 6 15.4616 6C13.4186 6 11.7739 7.58738 11.7739 9.53338C11.7739 9.81338 11.7986 10.0826 11.8594 10.3389C8.7915 10.1957 6.07688 8.78815 4.25325 6.644C3.93487 7.17276 3.74812 7.77799 3.74812 8.42953C3.74812 9.65291 4.40625 10.7374 5.38725 11.3652C4.79437 11.3544 4.21275 11.1897 3.72 10.9301C3.72 10.9409 3.72 10.9549 3.72 10.9689C3.72 12.6855 4.99912 14.1114 6.6765 14.4398C6.37613 14.5184 6.04875 14.5561 5.709 14.5561C5.47275 14.5561 5.23425 14.5432 5.01037 14.4958C5.4885 15.8948 6.84526 16.9232 8.4585 16.9566C7.203 17.8968 5.60887 18.4632 3.88312 18.4632C3.5805 18.4632 3.29025 18.4503 3 18.4148C4.63462 19.4238 6.57188 20 8.661 20C15.4515 20 19.164 14.6154 19.164 9.94799C19.164 9.79184 19.1584 9.64107 19.1505 9.49138C19.8829 8.99384 20.4982 8.37245 21 7.65738Z" fill="#1B2437"/>
</svg>
