<svg width="24" height="24" viewBox="0 0 24 24" fill="none" xmlns="http://www.w3.org/2000/svg">
<path fill-rule="evenodd" clip-rule="evenodd" d="M12 1C9.23858 1 7 3.23858 7 6C7 8.76142 9.23858 11 12 11C14.7614 11 17 8.76142 17 6C17 3.23858 14.7614 1 12 1ZM12 3C13.6569 3 15 4.34315 15 6C15 7.65685 13.6569 9 12 9C10.3431 9 9 7.65685 9 6C9 4.34315 10.3431 3 12 3ZM21 22C21 17.0294 16.9706 13 12 13C7.02944 13 3 17.0294 3 22C3 22.5523 3.44772 23 4 23C4.55228 23 5 22.5523 5 22C5 18.134 8.13401 15 12 15C15.866 15 19 18.134 19 22C19 22.5523 19.4477 23 20 23C20.5523 23 21 22.5523 21 22Z" fill="#1B2437"/>
</svg>
